<?xml version="1.0" encoding="UTF-8"?>
<svg width="330px" height="348px" viewBox="0 0 330 348" version="1.1" xmlns="http://www.w3.org/2000/svg" xmlns:xlink="http://www.w3.org/1999/xlink">
    <!-- Generator: Sketch 64 (93537) - https://sketch.com -->
    <title>001-reduced-volume</title>
    <desc>Created with Sketch.</desc>
    <g id="Page-1" stroke="none" stroke-width="1" fill="none" fill-rule="evenodd">
        <g id="001-reduced-volume" fill="#FFFFFF" fill-rule="nonzero">
            <path d="M201.133,0 C196.185,0 191.9,1.809 188.286,5.426 L93.213,100.5 L18.412,100.5 C13.46,100.5 9.177,102.309 5.562,105.924 C1.944,109.545 0.136,113.825 0.136,118.774 L0.136,228.408 C0.136,233.356 1.945,237.64 5.562,241.255 C9.181,244.872 13.463,246.683 18.412,246.683 L93.213,246.683 L188.286,341.76 C191.899,345.37 196.184,347.181 201.133,347.181 C206.082,347.181 210.365,345.37 213.987,341.76 C217.6,338.143 219.408,333.859 219.408,328.913 L219.408,18.276 C219.408,13.328 217.6,9.041 213.987,5.425 C210.362,1.809 206.081,0 201.133,0 Z" id="Path"></path>
            <path d="M316.904,133.037 C308.814,120.475 298.116,111.623 284.784,106.486 C282.881,105.536 280.506,105.059 277.652,105.059 C272.703,105.059 268.419,106.824 264.805,110.341 C261.191,113.862 259.377,118.194 259.377,123.332 C259.377,127.329 260.52,130.708 262.806,133.468 C265.092,136.23 267.843,138.61 271.087,140.607 C274.318,142.606 277.556,144.796 280.793,147.174 C284.03,149.554 286.788,152.932 289.074,157.309 C291.353,161.686 292.503,167.11 292.503,173.583 C292.503,180.061 291.354,185.482 289.074,189.862 C286.788,194.243 284.03,197.617 280.793,200.003 C277.556,202.377 274.318,204.567 271.087,206.566 C267.843,208.561 265.092,210.946 262.806,213.705 C260.52,216.467 259.377,219.844 259.377,223.842 C259.377,228.985 261.19,233.307 264.805,236.832 C268.418,240.35 272.702,242.112 277.652,242.112 C280.506,242.112 282.881,241.636 284.784,240.688 C298.116,235.36 308.814,226.459 316.904,213.999 C325.001,201.525 329.046,188.066 329.046,173.597 C329.046,159.124 324.991,145.611 316.904,133.037 Z" id="Path"></path>
        </g>
    </g>
</svg>