<?xml version="1.0" encoding="UTF-8"?>
<svg width="432px" height="432px" viewBox="0 0 432 432" version="1.1" xmlns="http://www.w3.org/2000/svg" xmlns:xlink="http://www.w3.org/1999/xlink">
    <!-- Generator: Sketch 64 (93537) - https://sketch.com -->
    <title>011-resize-option</title>
    <desc>Created with Sketch.</desc>
    <g id="Page-1" stroke="none" stroke-width="1" fill="none" fill-rule="evenodd">
        <g id="011-resize-option" fill="#FFFFFF" fill-rule="nonzero">
            <path d="M431.12,41.977 C431.12,39.502 430.165,37.316 428.263,35.41 L395.711,2.861 C393.809,0.955 391.625,0.005 389.148,0.005 C386.671,0.005 384.487,0.958 382.585,2.861 L287.786,97.65 L246.682,56.538 C243.069,52.921 238.777,51.112 233.828,51.112 C228.883,51.112 224.601,52.921 220.981,56.538 C217.367,60.154 215.559,64.436 215.559,69.385 L215.559,197.291 C215.559,202.243 217.367,206.524 220.981,210.142 C224.601,213.757 228.882,215.566 233.828,215.566 L361.734,215.566 C366.683,215.566 370.974,213.757 374.588,210.142 C378.201,206.525 380.015,202.244 380.015,197.291 C380.015,192.343 378.202,188.06 374.588,184.444 L333.474,143.33 L428.268,48.543 C430.165,46.641 431.12,44.451 431.12,41.977 Z" id="Path"></path>
            <path d="M197.286,215.569 L69.379,215.569 C64.431,215.569 60.148,217.378 56.532,220.995 C52.915,224.608 51.106,228.896 51.106,233.842 C51.106,238.79 52.915,243.074 56.532,246.689 L97.644,287.802 L2.857,382.589 C0.949,384.492 0,386.683 0,389.153 C0,391.631 0.949,393.82 2.857,395.723 L35.4,428.269 C37.306,430.171 39.493,431.116 41.967,431.116 C44.441,431.116 46.632,430.172 48.534,428.269 L143.323,333.478 L184.435,374.588 C188.05,378.202 192.333,380.016 197.282,380.016 C202.234,380.016 206.515,378.203 210.132,374.588 C213.748,370.978 215.556,366.69 215.556,361.741 L215.556,233.835 C215.556,228.886 213.747,224.602 210.135,220.995 C206.519,217.378 202.237,215.569 197.286,215.569 Z" id="Path"></path>
        </g>
    </g>
</svg>