<?xml version="1.0" encoding="UTF-8"?>
<svg width="221px" height="348px" viewBox="0 0 221 348" version="1.1" xmlns="http://www.w3.org/2000/svg" xmlns:xlink="http://www.w3.org/1999/xlink">
    <!-- Generator: Sketch 64 (93537) - https://sketch.com -->
    <title>006-volume-off</title>
    <desc>Created with Sketch.</desc>
    <g id="Page-1" stroke="none" stroke-width="1" fill="none" fill-rule="evenodd">
        <g id="006-volume-off" fill="#FFFFFF" fill-rule="nonzero">
            <path d="M214.808,5.426 C211.187,1.809 206.902,0 201.954,0 C197.009,0 192.721,1.809 189.107,5.426 L94.034,100.5 L19.233,100.5 C14.281,100.5 9.998,102.309 6.382,105.924 C2.765,109.545 0.956,113.825 0.956,118.774 L0.956,228.408 C0.956,233.356 2.765,237.64 6.382,241.255 C10.001,244.872 14.284,246.683 19.233,246.683 L94.031,246.683 L189.101,341.76 C192.721,345.37 197.005,347.181 201.948,347.181 C206.903,347.181 211.184,345.37 214.802,341.76 C218.415,338.143 220.226,333.859 220.226,328.913 L220.226,18.276 C220.226,13.328 218.421,9.042 214.808,5.426 Z" id="Path"></path>
        </g>
    </g>
</svg>